<svg id="Layer_1" data-name="Layer 1" xmlns="http://www.w3.org/2000/svg" viewBox="0 0 512 512"><path d="M460,677c-6.63592-2.43365-13.57239-4.28162-19.81375-7.48419a58.21993,58.21993,0,0,1-13.90353-10.43839q-24.20581-23.87174-47.87516-48.28585c-11.6557-11.99921-6.79812-30.373,8.95893-34.272,7.77383-1.92361,14.37579.68708,19.93426,6.32511,12.2858,12.46176,24.63306,24.86294,36.91684,37.32669a49.89539,49.89539,0,0,1,3.36948,4.2192l1.06534-.73043V217.67c-1.60245,1.50666-2.86936,2.62816-4.05863,3.82672-12.67813,12.77694-25.18429,25.7296-38.06039,38.30357-11.70255,11.42793-29.97113,6.49988-33.97568-8.99562a18.9905,18.9905,0,0,1,5.15958-18.87172q25.05033-25.50168,50.3844-50.72354a55.47552,55.47552,0,0,1,30.2499-15.3A5.87773,5.87773,0,0,0,460,165l18,0c.3833.28635.73593.76437,1.15433.8313,13.87692,2.21984,25.07333,9.1975,34.75653,19.11987,13.381,13.71153,27.07254,27.1224,40.33307,40.9479C558.63623,230.47847,562.10761,235.94114,566,241v10c-8.22244,19.45185-27.02347,18.35831-38.14688,5.59806-10.818-12.40986-23.03687-23.59909-34.65634-35.3087-1.10022-1.10876-2.31272-2.1061-3.75745-3.41228V623.71817c2.18149-.84357,3.20835-2.395,4.49011-3.69522,12.39991-12.57816,24.71436-25.24463,37.31122-37.62335,11.33216-11.136,27.60272-7.59924,33.73279,7.04919A9.71109,9.71109,0,0,0,566,591v10c-3.89243,5.0589-7.363,10.52264-11.75613,15.101-13.379,13.943-26.92655,27.738-40.807,41.17911a86.197,86.197,0,0,1-17.414,13.16013c-5.49634,3.0946-11.977,4.441-18.02283,6.55972Z" transform="translate(-54 -165)"/><path d="M119,165c1.573.81823,3.16381,1.6041,4.71592,2.46016a19.977,19.977,0,0,1-8.56571,37.51619c-12.96063.916-20.17129,7.95963-21.15138,20.66149-.77974,10.10524-7.21433,17.6011-16.47356,19.19056-9.48952,1.629-18.33528-3.45954-22.36058-12.83594A18.07485,18.07485,0,0,0,54,230V217a11.05192,11.05192,0,0,0,.92081-2.24263c2.98334-17.14888,11.71011-30.84533,26.423-39.82116C88.80588,170.38386,97.73443,168.2353,106,165Z" transform="translate(-54 -165)"/><path d="M54,612c.99813-1.84094,1.92077-3.72775,3.00759-5.51477A19.95868,19.95868,0,0,1,93.967,615.3649c1.056,13.57544,7.88888,20.72455,20.68467,21.642,10.02274.71859,17.6699,7.284,19.19617,16.48077,1.59391,9.60434-3.43327,18.36581-12.80759,22.36423A20.64266,20.64266,0,0,0,119,677H106a11.48879,11.48879,0,0,0-2.27161-.905c-16.6097-2.82815-30.0627-11.171-38.95274-25.2272C59.85405,643.08621,57.50736,633.67606,54,625Z" transform="translate(-54 -165)"/><path d="M280,165c8.00652,3.06149,16.7377,4.96033,23.87842,9.41094,18.54486,11.55849,28.00882,28.87334,28.07016,50.91295A19.60444,19.60444,0,0,1,312.756,244.98034c-11.14.24971-19.924-7.65249-20.72506-18.64452-.96044-13.17958-7.91249-20.41219-20.50887-21.33652-10.16253-.74572-17.67309-7.1172-19.33655-16.4039-1.6947-9.46118,3.41883-18.423,12.78017-22.44123A20.398,20.398,0,0,0,267,165Z" transform="translate(-54 -165)"/><path d="M267,677c-1.57162-.8244-3.16057-1.61765-4.71193-2.47861a19.98278,19.98278,0,0,1,8.23473-37.4852c13.78215-1.03485,20.51355-7.72369,21.50819-21.372.80106-10.99207,9.585-18.89423,20.725-18.64457a19.79284,19.79284,0,0,1,19.23227,19.65656c.53015,28.74435-20.747,54.39746-49.20593,59.36374A17.99983,17.99983,0,0,0,280,677Z" transform="translate(-54 -165)"/><path d="M197,165c1.43048.7346,2.868,1.45588,4.29029,2.206a20.19956,20.19956,0,0,1,10.2911,22.34711,20.13844,20.13844,0,0,1-39.1628-.00005A20.19958,20.19958,0,0,1,182.70977,167.206c1.42228-.75012,2.85977-1.4714,4.29023-2.206Z" transform="translate(-54 -165)"/><path d="M54,299c.73461-1.43048,1.45588-2.868,2.206-4.29028A20.19956,20.19956,0,0,1,78.5531,284.41861a20.13845,20.13845,0,0,1,0,39.16281A20.19955,20.19955,0,0,1,56.206,313.29027C55.45588,311.868,54.7346,310.43048,54,309Z" transform="translate(-54 -165)"/><path d="M54,377c.73461-1.43048,1.45588-2.868,2.206-4.29028a20.19956,20.19956,0,0,1,22.3471-10.29111,20.13845,20.13845,0,0,1,0,39.1628A20.19961,20.19961,0,0,1,56.206,391.29027C55.45588,389.868,54.7346,388.43048,54,387Z" transform="translate(-54 -165)"/><path d="M54,455c.73461-1.43048,1.45589-2.868,2.206-4.29028a20.19962,20.19962,0,0,1,22.34708-10.29114,20.13847,20.13847,0,0,1,0,39.16284A20.19952,20.19952,0,0,1,56.206,469.29029C55.45589,467.868,54.73461,466.43048,54,465Z" transform="translate(-54 -165)"/><path d="M54,533c.73461-1.43048,1.45589-2.868,2.206-4.29028a20.19964,20.19964,0,0,1,22.34708-10.29114,20.13847,20.13847,0,0,1,0,39.16284A20.19955,20.19955,0,0,1,56.206,547.29028C55.4559,545.868,54.7346,544.43048,54,543Z" transform="translate(-54 -165)"/><path d="M187,677c-1.43048-.73462-2.868-1.45587-4.29031-2.206a20.19962,20.19962,0,0,1-10.29108-22.34714,20.13845,20.13845,0,0,1,39.1628,0A20.19954,20.19954,0,0,1,201.29032,674.794c-1.42229.75015-2.85982,1.4714-4.29032,2.206Z" transform="translate(-54 -165)"/><path d="M331.98773,303.94378a19.98825,19.98825,0,1,1-19.91912-19.93152A19.78382,19.78382,0,0,1,331.98773,303.94378Z" transform="translate(-54 -165)"/><path d="M312.00342,403.98778a19.98852,19.98852,0,1,1,19.98431-19.86623A19.78765,19.78765,0,0,1,312.00342,403.98778Z" transform="translate(-54 -165)"/><path d="M311.96857,442.01227a19.98833,19.98833,0,1,1-19.95628,19.89438A19.78466,19.78466,0,0,1,311.96857,442.01227Z" transform="translate(-54 -165)"/><path d="M292.01221,539.707a19.99127,19.99127,0,1,1,19.57,20.28073A19.79045,19.79045,0,0,1,292.01221,539.707Z" transform="translate(-54 -165)"/></svg>