<svg id="Layer_1" data-name="Layer 1" xmlns="http://www.w3.org/2000/svg" viewBox="0 0 384 384"><defs><style>.cls-1{fill:#fff;}</style></defs><path class="cls-1" d="M347.0354,640.20262H106.00616v-384h384v384H347.78394c.67507-.87464,1.29561-1.79843,2.033-2.617q54.08844-60.04441,108.1944-120.073c2.2074-2.44961,4.39355-4.91836,7.23726-8.10364H416.50086V256.95558c-1.503,0-2.49669,0-3.49041,0-55.75342.00138-111.50708-.072-167.26.09927a115.33172,115.33172,0,0,0-20.76088,2.13534c-58.485,10.96309-101.50894,66.51942-94.0314,129.30912,3.71339,31.18171,17.99724,57.06071,42.41969,76.83808,26.286,21.28649,56.46753,29.72241,90.101,25.22067,4.83525-.64716,9.6223-1.65453,14.35578-2.48195v21.4576H229.524c1.46389,1.68691,2.404,2.8067,3.38221,3.89211q32.06091,35.57275,64.12585,71.14184Q322.05884,612.36251,347.0354,640.20262Z" transform="translate(-106.00616 -256.20262)"/><path d="M347.0354,640.20262q-24.99987-27.81912-50.00336-55.635-32.04384-35.5881-64.12585-71.14184c-.97824-1.08541-1.91832-2.2052-3.38221-3.89211H277.8347v-21.4576c-4.73348.82742-9.52053,1.83479-14.35578,2.48195-33.6335,4.50174-63.815-3.93418-90.101-25.22067C148.95544,445.56,134.67159,419.681,130.9582,388.49931c-7.47754-62.7897,35.54644-118.346,94.0314-129.30912a115.33172,115.33172,0,0,1,20.76088-2.13534c55.75289-.17127,111.50655-.09789,167.26-.09927.99372,0,1.98742,0,3.49041,0V509.409H465.2486c-2.84371,3.18528-5.02986,5.654-7.23726,8.10364q-54.09875,60.03509-108.1944,120.073c-.73739.81853-1.35793,1.74232-2.033,2.617ZM281.46282,532.09717l-.434.92462L347.309,606.55763c22.31008-24.76439,44.36192-49.24212,67.12886-74.51364h-20.5095V279.69559H316.74629c3.14126,2.65962,6.00681,4.86485,8.62285,7.3344,31.55693,29.78994,44.42505,66.33193,36.89289,108.96192-6.41946,36.33213-27.04242,63.37788-59.16436,81.53947a4.24848,4.24848,0,0,0-2.53084,4.32143c.08381,15.33969.04916,30.68006.03714,46.0202-.001,1.31622-.10965,2.63238-.18055,4.22416ZM152.75556,374.86137c.37314,52.43865,42.88512,94.67216,94.84326,94.222,53.14313-.46039,94.60384-42.911,94.20218-96.45136-.38284-51.0331-43.786-93.582-95.09911-93.22732C194.79666,279.76347,152.38552,322.85643,152.75556,374.86137Z" transform="translate(-106.00616 -256.20262)"/><path class="cls-1" d="M281.46282,532.09717h18.9606c.0709-1.59178.17953-2.90794.18055-4.22416.012-15.34014.04667-30.68051-.03714-46.0202a4.24848,4.24848,0,0,1,2.53084-4.32143c32.12194-18.16159,52.7449-45.20734,59.16436-81.53947,7.53216-42.63-5.336-79.172-36.89289-108.96192-2.616-2.46955-5.48159-4.67478-8.62285-7.3344h77.18206V532.044h20.5095c-22.76694,25.27152-44.81878,49.74925-67.12886,74.51364l-66.28015-73.53584Z" transform="translate(-106.00616 -256.20262)"/><path class="cls-1" d="M152.75556,374.86137c-.37-52.00494,42.0411-95.0979,93.94633-95.45665,51.31311-.35466,94.71627,42.19422,95.09911,93.22732.40166,53.54036-41.05905,95.991-94.20218,96.45136C195.64068,469.53353,153.1287,427.3,152.75556,374.86137ZM266.319,372.31261c5.65407-5.56585,10.51233-10.31552,15.33385-15.10219,7.35277-7.29966,12.53177-7.7606,21.10078-1.99822.8951.60194,2.56661,1.05865,3.31268.62044a4.33446,4.33446,0,0,0,1.87384-3.21421,68.19606,68.19606,0,0,0-.95961-10.773c-5.41457-29.98739-33.15525-51.63627-63.17174-50.65029-31.77977,1.04389-59.74285,28.30936-59.80178,60.14123-.00281,1.51908.70265,3.78607,1.78133,4.34294,1.00558.51913,3.1911-.44176,4.43932-1.33507,5.98015-4.27978,12.70763-4.12788,18.07678.94932,4.98117,4.7103,9.74375,9.6522,14.58452,14.51012.63621.63846,1.16535,1.38364,2.10118,2.50868-4.71658,0-8.81461-.00551-12.91261.00138-5.26943.00887-5.60627.51652-5.8227,5.7808-.27877,6.78073,1.3978,13.35978,1.84886,19.99069.86963,12.78433.27771,25.66976.23585,38.51309-.00888,2.72127.51337,4.53768,3.878,4.52648q33.854-.11268,67.70856-.01423c2.5545.005,3.55326-1.12552,3.69264-3.56975.93367-16.374-2.0031-32.879,1.92746-49.18234.85231-3.5353.00771-7.45629.158-11.19105.14217-3.53319-1.35442-5.00123-4.87735-4.88888C276.39673,372.41986,271.95875,372.31261,266.319,372.31261Z" transform="translate(-106.00616 -256.20262)"/><path d="M266.319,372.31261c5.63976,0,10.07774.10725,14.5078-.034,3.52293-.11235,5.01952,1.35569,4.87735,4.88888-.15026,3.73476.69434,7.65575-.158,11.19105-3.93056,16.30335-.99379,32.8083-1.92746,49.18234-.13938,2.44423-1.13814,3.57476-3.69264,3.56975q-33.85425-.06623-67.70856.01423c-3.3646.0112-3.88685-1.80521-3.878-4.52648.04186-12.84333.63378-25.72876-.23585-38.51309-.45106-6.63091-2.12763-13.21-1.84886-19.99069.21643-5.26428.55327-5.77193,5.8227-5.7808,4.098-.00689,8.196-.00138,12.91261-.00138-.93583-1.125-1.465-1.87022-2.10118-2.50868-4.84077-4.85792-9.60335-9.79982-14.58452-14.51012-5.36915-5.0772-12.09663-5.2291-18.07678-.94932-1.24822.89331-3.43374,1.8542-4.43932,1.33507-1.07868-.55687-1.78414-2.82386-1.78133-4.34294.05893-31.83187,28.022-59.09734,59.80178-60.14123,30.01649-.986,57.75717,20.6629,63.17174,50.65029a68.19606,68.19606,0,0,1,.95961,10.773,4.33446,4.33446,0,0,1-1.87384,3.21421c-.74607.43821-2.41758-.0185-3.31268-.62044-8.569-5.76238-13.748-5.30144-21.10078,1.99822C276.83132,361.99709,271.97306,366.74676,266.319,372.31261Zm-51.58026,21.63057v40.98374h62.533v-40.967H260.14934c-.22014.43356-.42487.64928-.426.8661q-.06642,12.339-.0965,24.67807c-.01722,6.34644-1.193,7.2037-7.03421,4.71073-3.80969-1.626-7.18879-2.86693-11.57322-.783-8.055,3.8285-8.68385,3.16256-8.68368-5.83818.00016-7.81826,0-15.63653,0-23.65044Zm-7.06426-47.72855c1.92813-7.32625,3.396-15.47952,6.2712-23.10193,2.8586-7.57838,7.1317-14.6232,10.486-21.30715-15.94235,4.11775-34.70823,28.51757-33.59845,44.40908Zm93.54966.00437c.071-17.17029-19.44029-42.24052-33.6264-44.35073,3.36566,6.75076,7.62714,13.83683,10.48878,21.44914,2.8612,7.61108,4.32237,15.74848,6.19952,22.90159Zm-54.94527-48.97619c-4.88656,8.47838-9.74248,38.66459-8.43788,48.72841h16.60784C253.451,330.12317,252.65121,313.72321,246.27886,297.24281Zm30.97807,48.90142c-1.33783-18.45645-12.42384-42.58606-22.59659-45.72564,1.32946,7.53955,2.9348,15.20553,3.97541,22.94742,1.052,7.82682,1.54468,15.72883,2.20553,22.77822ZM236.788,300.33259c-11.64512,5.26729-21.67895,31.53152-21.89954,45.80693h15.73237C232.63357,331.19013,234.719,315.7006,236.788,300.33259Zm1.821,78.2066v39.54728c4.98125-3.11462,9.818-2.971,14.70273-.10571v-39.2605h-4.29823c0,1.528.00015,2.75888,0,3.98972-.00069,4.73027-.0256,9.46069.00882,14.1907.01525,2.09515-.50509,3.88343-2.919,3.94269-2.65549.06519-3.22114-1.82687-3.15609-4.07126.036-1.24374.005-2.48943.00492-3.73423-.00019-4.80107-.00009-9.60213-.00009-14.49869Zm37.99437-24.68949c-5.349-3.324-10.84434-3.25625-15.343.49564-2.68275,2.23743-4.59693,2.183-7.07282-.08856-1.26412-1.15978-3.0864-1.71119-4.96324-2.69909v21.25295c3.50141-.57513,7.55223-.04555,9.70135-1.81966C265.14084,365.86034,270.5909,359.80283,276.60339,353.8497Zm-61.18077-.03306c5.0774,5.04779,10.38921,9.75169,14.98162,15.07608,3.69883,4.28839,7.86972,3.57943,12.25531,3.11191V351.498c-1.9799,1.08162-3.70263,1.63745-4.89829,2.75645-2.46164,2.30385-4.38841,2.31644-7.06669.0843C226.1884,350.58317,220.67964,350.51783,215.42262,353.81664Zm-2.86621,33.4706h19.46193V378.6236H212.55641Zm47.34848-8.63353v8.62388h19.53635v-8.62388Z" transform="translate(-106.00616 -256.20262)"/><path class="cls-1" d="M214.73873,393.94318h17.597c0,8.01391.00014,15.83218,0,23.65044-.00017,9.00074.62869,9.66668,8.68368,5.83818,4.38443-2.0839,7.76353-.84294,11.57322.783,5.84125,2.493,7.017,1.63571,7.03421-4.71073q.03346-12.33909.0965-24.67807c.00116-.21682.20589-.43254.426-.8661h17.12244v40.967h-62.533Z" transform="translate(-106.00616 -256.20262)"/><path class="cls-1" d="M207.67447,346.21463H190.83324c-1.10978-15.89151,17.6561-40.29133,33.59845-44.40908-3.35432,6.684-7.62742,13.72877-10.486,21.30715C211.07046,330.73511,209.6026,338.88838,207.67447,346.21463Z" transform="translate(-106.00616 -256.20262)"/><path class="cls-1" d="M301.22413,346.219H284.286c-1.87715-7.15311-3.33832-15.29051-6.19952-22.90159-2.86164-7.61231-7.12312-14.69838-10.48878-21.44914C281.78384,303.97848,301.29513,329.04871,301.22413,346.219Z" transform="translate(-106.00616 -256.20262)"/><path class="cls-1" d="M246.27886,297.24281c6.37235,16.4804,7.17211,32.88036,8.17,48.72841H237.841C236.53638,335.9074,241.3923,305.72119,246.27886,297.24281Z" transform="translate(-106.00616 -256.20262)"/><path class="cls-1" d="M277.25693,346.14423H260.84128c-.66085-7.04939-1.1535-14.9514-2.20553-22.77822-1.04061-7.74189-2.64595-15.40787-3.97541-22.94742C264.83309,303.55817,275.9191,327.68778,277.25693,346.14423Z" transform="translate(-106.00616 -256.20262)"/><path class="cls-1" d="M236.788,300.33259c-2.06906,15.368-4.15447,30.85754-6.16717,45.80693H214.8885C215.10909,331.86411,225.14292,305.59988,236.788,300.33259Z" transform="translate(-106.00616 -256.20262)"/><path class="cls-1" d="M238.609,378.53919h4.343c0,4.89656-.0001,9.69762.00009,14.49869,0,1.2448.03112,2.49049-.00492,3.73423-.06505,2.24439.5006,4.13645,3.15609,4.07126,2.41394-.05926,2.93428-1.84754,2.919-3.94269-.03442-4.73-.00951-9.46043-.00882-14.1907.00018-1.23084,0-2.46169,0-3.98972h4.29823v39.2605c-4.8847-2.86533-9.72148-3.00891-14.70273.10571Zm11.79577,29.49665c-2.2313-1.36189-3.57017-2.82246-4.58721-2.625a4.32336,4.32336,0,0,0-2.59813,3.10133c-.104.731,1.79266,2.4542,2.78253,2.44785C247.14686,410.95265,248.28272,409.53513,250.40479,408.03584Z" transform="translate(-106.00616 -256.20262)"/><path class="cls-1" d="M276.60339,353.8497c-6.01249,5.95313-11.46255,12.01064-17.67772,17.14128-2.14912,1.77411-6.19994,1.24453-9.70135,1.81966V351.55769c1.87684.9879,3.69912,1.53931,4.96324,2.69909,2.47589,2.27154,4.39007,2.326,7.07282.08856C265.75905,350.59345,271.2544,350.52569,276.60339,353.8497Z" transform="translate(-106.00616 -256.20262)"/><path class="cls-1" d="M215.42262,353.81664c5.257-3.29881,10.76578-3.23347,15.272.52206,2.67828,2.23214,4.60505,2.21955,7.06669-.0843,1.19566-1.119,2.91839-1.67483,4.89829-2.75645v20.50668c-4.38559.46752-8.55648,1.17648-12.25531-3.11191C225.81183,363.56833,220.5,358.86443,215.42262,353.81664Z" transform="translate(-106.00616 -256.20262)"/><path class="cls-1" d="M212.55641,387.28724V378.6236h19.46193v8.66364Z" transform="translate(-106.00616 -256.20262)"/><path class="cls-1" d="M259.90489,378.65371h19.53635v8.62388H259.90489Z" transform="translate(-106.00616 -256.20262)"/><path d="M250.40479,408.03584c-2.12207,1.49929-3.25793,2.91681-4.40281,2.92413-.98987.00635-2.88653-1.71682-2.78253-2.44785a4.32336,4.32336,0,0,1,2.59813-3.10133C246.83462,405.21338,248.17349,406.674,250.40479,408.03584Z" transform="translate(-106.00616 -256.20262)"/></svg>