<svg id="Layer_1" data-name="Layer 1" xmlns="http://www.w3.org/2000/svg" viewBox="0 0 33.74237 31.80895"><defs><style>.cls-1{fill:none;stroke:#000;stroke-miterlimit:10;stroke-width:2px;}</style></defs><path class="cls-1" d="M259.612,397.13346a2.221,2.221,0,0,1-2.69688,2.70247,2.18483,2.18483,0,0,1-1.601-1.601,2.21839,2.21839,0,0,1,4.29788-1.10147Z" transform="translate(-240.60649 -389.52001)"/><path class="cls-1" d="M255.42062,390.78485a7.46784,7.46784,0,0,0-5.5453,7.82975c.01121.17353.029.34577.05467.51539a11.26819,11.26819,0,0,0,1.82,4.91l2.13,3.16,2.72,4.03.17.25.56,1.02.61-1.13.46-.62,2.81-3.81,1.45-1.97c1.90176-2.66756,2.41-4.2,2.41-6.85A7.62346,7.62346,0,0,0,255.42062,390.78485Zm2.65126,9.03289a2.218,2.218,0,0,1-2.73961-2.73961,2.19341,2.19341,0,0,1,1.61661-1.55174,2.22439,2.22439,0,0,1,2.67474,2.67474A2.19341,2.19341,0,0,1,258.07188,399.81774Z" transform="translate(-240.60649 -389.52001)"/><path class="cls-1" d="M259.612,397.13346a2.221,2.221,0,0,1-2.69688,2.70247,2.18483,2.18483,0,0,1-1.601-1.601,2.21839,2.21839,0,0,1,4.29788-1.10147Z" transform="translate(-240.60649 -389.52001)"/><line class="cls-1" x1="9.32351" y1="9.60999" x2="9.08351" y2="9.16999"/><polygon class="cls-1" points="32.193 30.62 1.524 30.8 3.734 25.67 7.174 17.68 13.274 17.68 15.993 21.71 16.144 21.96 16.724 22.98 17.394 21.88 17.794 21.23 20.604 17.42 26.193 17.42 32.193 30.62"/><polyline class="cls-1" points="4.245 25.628 10.502 23.582 16.269 21.761"/><polyline class="cls-1" points="17.334 21.85 17.394 21.88 28.662 26.273 21.944 30.36 15.944 30.45 10.124 23.67 3.734 25.67 3.434 25.76"/></svg>