<svg id="Layer_1" data-name="Layer 1" xmlns="http://www.w3.org/2000/svg" viewBox="0 0 315.108 383.321"><path d="M366.97478,237q38.46882,38.25684,76.84791,76.60262a10.31287,10.31287,0,0,1,2.56751,6.64675q.19185,124.07964.087,248.15969a22.23009,22.23009,0,0,1-21.977,21.95357c-2.48982.02751-4.98022.004-8.014.004,0,2.737.021,5.301-.00355,7.86462a22.24192,22.24192,0,0,1-22.24331,22.06893q-120.21858.0425-240.43713.003a22.17342,22.17342,0,0,1-22.39456-22.28139q-.032-154.3981.0003-308.79619A22.19946,22.19946,0,0,1,153.812,266.95414c2.36021-.01474,4.7206-.00211,7.59361-.00211,0-2.26923-.00229-4.33926.00038-6.40929.01484-11.47632,5.82925-19.40464,16.72749-22.84256A7.26771,7.26771,0,0,0,179.4074,237Zm34.16754,353.36905-4.59529,0c-70.26571,0-140.53234-.1879-210.79631.15982a24.03174,24.03174,0,0,1-24.50162-24.26722c.36272-59.0101.15628-118.02368.15683-177.036,0-.99806-.04623-1.99976.02126-2.99354a7.30746,7.30746,0,0,1,7.35665-6.97443c4.85307-.06127,7.61527,3.17191,7.61576,8.981q.00751,88.33134.00445,176.66269c.00031,8.09585,2.40819,10.50143,10.51292,10.50164q117.02514.00288,234.05029,0c8.10762-.00018,10.5335-2.41411,10.5337-10.48673q.00324-116.96418.00129-233.92833c0-1.31657,0-2.63312,0-4.1522-17.762,0-35.00119.02115-52.24031-.00691-13.002-.02117-22.75438-9.72042-22.77881-22.65473q-.04521-23.95419-.00783-47.90851c0-1.33056,0-2.66112,0-4.29634h-3.3342q-83.64371,0-167.28739.00727c-6.71041.00154-9.44056,2.81919-9.44584,9.67828q-.02173,28.25853-.01074,56.51708c-.004,5.47982-2.84563,8.69564-7.56729,8.65848-4.68922-.0369-7.40589-3.24533-7.42112-8.80409-.01469-5.36472-.00333-10.7295-.00335-16.09426,0-6.57262,0-13.14523,0-19.65788-10.27686-1.28558-15.16262.08136-15.13606,12.33879q.32492,149.90056.12233,299.80229c.00006,8.65522,2.25654,10.93507,10.82752,10.93519,77.01721.001,154.03475-.11324,231.05131.111,13.06323.038,13.66882-4.44691,13.17881-13.90214A8.95034,8.95034,0,0,0,401.14232,590.36905ZM419.21,311.84272c-15.90682-15.87409-31.87831-31.81273-47.71426-47.61612,0,13.03919-.09541,26.58271.05584,40.12348a7.24589,7.24589,0,0,0,7.40088,7.43317C392.53045,311.94421,406.11162,311.84272,419.21,311.84272Z" transform="translate(-131.39155 -237)"/><path d="M273.77138,326.8362q-29.24438,0-58.48874-.004c-5.58639-.0029-8.79773-2.69769-8.85537-7.36721-.05852-4.7421,3.13484-7.58636,8.62721-7.58776q59.0512-.015,118.1024.00212c4.36131.00139,7.34416,2.12452,8.17269,5.68185a7.31373,7.31373,0,0,1-4.32912,8.58332,13.35136,13.35136,0,0,1-4.7404.66429Q303.01582,326.87193,273.77138,326.8362Z" transform="translate(-131.39155 -237)"/><path d="M274.33,384.57024q29.05708.00039,58.11418.01035c5.62487.00762,9.063,3.02112,9.01127,7.74217a7.14865,7.14865,0,0,1-5.88415,7.1581,26.40663,26.40663,0,0,1-4.84685.33017q-56.80194.02548-113.60389.00742a30.95159,30.95159,0,0,1-3.74039-.147c-4.25589-.52021-6.92379-3.38863-6.95333-7.38134a7.58449,7.58449,0,0,1,7.167-7.66523,32.38877,32.38877,0,0,1,3.37187-.05322Q245.64786,384.56816,274.33,384.57024Z" transform="translate(-131.39155 -237)"/><path d="M265.30764,509.12955c-16.49688-.00089-32.99383.02306-49.49062-.0145-5.42779-.01236-8.67083-2.24584-9.33361-6.20454a7.68954,7.68954,0,0,1,6.54309-8.92329,16.10529,16.10529,0,0,1,2.61757-.10675q50.05307-.007,100.10614.00311c5.72531.00249,9.15279,2.85971,9.199,7.54617a7.131,7.131,0,0,1-6.05093,7.38565,28.25982,28.25982,0,0,1-4.84989.30259Q289.67808,509.14861,265.30764,509.12955Z" transform="translate(-131.39155 -237)"/><path d="M262.30924,530.484q23.62188,0,47.24378.00377c5.56167.00377,8.79316,2.71842,8.8403,7.36876.04907,4.83843-3.1899,7.58758-9.0068,7.58881q-47.05631.01-94.1126-.00089c-5.57791-.00146-8.79367-2.70939-8.84666-7.37968-.0549-4.8382,3.18083-7.57473,9.01317-7.57791Q238.87484,530.47417,262.30924,530.484Z" transform="translate(-131.39155 -237)"/><path d="M244.195,421.17826c9.61964-.00007,19.23933-.01883,28.85889.00748,5.18956.0142,8.37279,2.88317,8.37972,7.45308.007,4.584-3.17083,7.48872-8.34877,7.49447q-29.23368.03243-58.4674-.00237c-5.096-.00711-8.27266-3.03968-8.19013-7.64785.079-4.413,3.22331-7.277,8.15922-7.29442C224.45587,421.15389,234.32547,421.17834,244.195,421.17826Z" transform="translate(-131.39155 -237)"/><path d="M244.30851,275.26553c9.61969.0012,19.23967-.04155,28.85893.02151,4.04541.02651,7.18574,2.18987,8.02507,5.5.84278,3.32377.02406,6.372-2.93609,8.1967a11.36589,11.36589,0,0,1-5.66054,1.467q-28.67087.15529-57.343.03754c-5.5656-.01923-8.78638-2.90272-8.82614-7.49272-.04085-4.71744,3.39218-7.70169,9.02267-7.72178C225.069,275.23948,234.68881,275.26434,244.30851,275.26553Z" transform="translate(-131.39155 -237)"/><path d="M243.89928,472.7478c-9.61951.00064-19.23932.04647-28.85841-.01721-5.44857-.036-8.85722-3.34412-8.60653-8.129a7.13291,7.13291,0,0,1,5.88183-6.76956,27.044,27.044,0,0,1,4.84577-.32279q27.54675-.03,55.09353.00553c5.52.01313,8.779,2.51715,9.16076,6.77266.43121,4.80658-2.95145,8.383-8.28388,8.43346C263.3888,472.81317,253.64372,472.74714,243.89928,472.7478Z" transform="translate(-131.39155 -237)"/><path d="M168.96763,360.52086a7.47715,7.47715,0,1,1,7.42858-7.63719A7.33426,7.33426,0,0,1,168.96763,360.52086Z" transform="translate(-131.39155 -237)"/></svg>