<svg id="Layer_1" data-name="Layer 1" xmlns="http://www.w3.org/2000/svg" viewBox="0 0 74.73004 87.70319"><defs><style>.cls-1{fill:none;stroke:#1d1d1b;stroke-miterlimit:10;stroke-width:3px;}</style></defs><path class="cls-1" d="M229.63818,375.70235l-2.49,7.19a35.8641,35.8641,0,0,1,11.6-68.43l-2.92,7.49-12.16,31.22,13.86-.27Z" transform="translate(-204.50817 -309.82136)"/><path class="cls-1" d="M277.73821,350.18239a35.88186,35.88186,0,0,1-48.68,33.5l4.73-6.26,23.84-31.58H246.75817l11.06-20.49,3.02-5.6A35.8083,35.8083,0,0,1,277.73821,350.18239Z" transform="translate(-204.50817 -309.82136)"/><path class="cls-1" d="M237.52819,352.90236l-7.89,22.8a28.87538,28.87538,0,0,1,6.19-53.75l-12.16,31.22Z" transform="translate(-204.50817 -309.82136)"/><path class="cls-1" d="M271.61822,349.98238a28.85842,28.85842,0,0,1-37.83,27.44l23.84-31.58H246.75817l11.06-20.49A28.85638,28.85638,0,0,1,271.61822,349.98238Z" transform="translate(-204.50817 -309.82136)"/><polygon class="cls-1" points="60.73 1.781 56.33 9.931 53.31 15.531 42.25 36.021 53.12 36.021 29.28 67.601 24.55 73.861 20.52 79.211 22.64 73.071 25.13 65.881 33.02 43.081 19.16 43.351 31.32 12.131 34.24 4.641 35.46 1.511 60.73 1.781"/></svg>