<svg id="Layer_1" data-name="Layer 1" xmlns="http://www.w3.org/2000/svg" viewBox="0 0 359.04696 271.91277"><defs><style>.cls-1{fill:#eb1f26;}</style></defs><path class="cls-1" d="M115.18343,418.23018c.81135,1.71939,1.51248,2.96863,2.00828,4.29462,2.98163,7.97387,8.57451,13.829,15.40569,18.53042,1.58206,1.08881,3.93245,1.06131,5.92929,1.54746.38095-2.01349,1.25636-4.07651,1.06064-6.03226-1.07348-10.72635,5.66632-18.45972,15.07295-16.231,3.42584.81174,6.2661,3.98853,9.45233,5.95883,1.82362,1.12772,3.80572,1.99912,5.71646,2.98594.69295-2.05842,1.7656-4.07569,1.994-6.18442.38782-3.58051-.3634-7.36353.4568-10.80066,1.443-6.04682,6.45516-7.92758,12.01813-4.95752,3.22392,1.72125,6.21133,3.89154,9.46121,5.55487,1.07883.55218,2.64394.15424,3.98673.19064-.444-1.30029-.567-2.86435-1.38369-3.85843-5.68629-6.92129-13.20134-12.90258-17.00837-20.70787-16.3301-33.48021-21.0539-72.255,6.51448-101.16313,15.67016-16.4317,35.32008-23.14909,58.22271-17.81253,14.64646,3.41281,27.24643,9.625,34.96323,23.39911,8.12982,14.51143,7.00961,30.0919-3.04288,43.31822a8.13987,8.13987,0,0,0-1.02246,5.94881c.64633,3.02193,2.184,5.85324,3.638,9.49852,1.12485-1.43208,1.79056-2.22713,2.39887-3.06392,1.84732-2.54132,3.20178-5.73755,5.60864-7.51091,4.39142-3.23555,9.0408-5.803,7.53073-12.4989-.16943-.75121.60944-1.93674,1.264-2.61754,4.26367-4.43433,8.32144-9.133,13.00848-13.07753,6.30722-5.30792,14.45392-4.33443,21.96875-4.94316,4.75821-.38544,9.61072.53685,14.42414.592a7.28612,7.28612,0,0,0,3.779-1.60256c4.43289-3.09407,8.77563-6.3173,13.15173-9.49272l1.32315,1.10364a33.02516,33.02516,0,0,1-1.07062,3.25415c-.79965,1.81014-2.05426,3.49074-2.481,5.3703-.3104,1.36723.40536,2.96741.6636,4.46373,1.333-.69308,3.0455-1.07184,3.92819-2.13779,2.7161-3.28,6.14655-3.13665,9.5889-2.23483,3.841,1.00624,4.3877,3.20365,1.89,6.32759-1.99,2.4888-3.21,5.10918.30691,7.093,12.39087,6.98929,20.52722,18.30975,29.55359,28.719,3.90851,4.50734,7.24329,9.49048,13.34784,11.61107,1.5581.54125,2.55313,2.80936,3.709,4.35713.56134.7517.7023,1.889,1.36444,2.48266,6.9061,6.19125,6.96485,7.6446-.00433,14.16967.77292,1.29293,1.537,2.71921,2.437,4.05384a162.19931,162.19931,0,0,0,36.32749,38.19059c1.74011,1.33222,2.61291,3.79728,3.88763,5.73737-2.3305.87836-5.00943,2.96667-6.92792,2.41421a155.51912,155.51912,0,0,1-18.85443-7.1651c-2.79837-1.21814-5.23523-3.2669-9.091-5.74566,1.14242,9.59958-4.39594,10.1885-10.48587,10.60092-1.20377.08154-3.26114,2.39578-3.2189,3.62158.268,7.77426-1.45862,9.67322-9.16987,9.11417-1.14618-.08313-2.29379-.14582-3.83606-.2428a14.75733,14.75733,0,0,0-.24746,3.41217c1.01874,5.99194-.44385,10.56461-9.12186,12.43338a44.223,44.223,0,0,1-19.18341-.23737c-12.54367-3.0621-24.762-7.4645-37.09109-11.38806a8.28564,8.28564,0,0,1-3.90418-2.11392c-2.23175-2.78235-4.91852-2.76141-8.06824-2.44244-3.94568.39962-7.64691-.07959-9.43329-4.66345-.3302-.84729-2.51324-1.68827-3.55993-1.42292-6.18869,1.56894-11.8356,2.12683-15.91657-4.33612-.495-.784-3.05969-.73153-4.49649-.37915-18.28583,4.48456-33.86584,14.08158-48.96695,25.03372-22.53534,16.34388-25.80063,46.01484-16.42843,65.72156,1.99267,4.18994,5.8778,7.46689,8.7991,11.23575a34.99922,34.99922,0,0,1,2.3407,3.96561c-1.3021.62024-2.55216,1.61551-3.9141,1.80462-21.77294,3.02347-51.53106-12.22748-61.4609-31.95129-3.49231-6.93686-5.98284-14.42978-8.3645-21.85053-1.06463-3.31717-2.19848-5.09884-5.93839-5.19864a114.63782,114.63782,0,0,1-15.40094-1.378,44.20029,44.20029,0,0,1-37.0258-40.21157C106.94267,431.05168,110.00238,422.178,115.18343,418.23018ZM355.16415,306.10335c-6.46069,4.92032-6.1358,11.029-4.9718,17.17892.7088,3.74468,2.43769,7.30875,3.02616,11.06093,1.02963,6.56488,1.53411,13.21213,2.25863,19.82485l-2.19137.93251q-7.78249-7.8249-15.565-15.64981l-1.17559.80137c.39126,1.5284.87872,3.03969,1.15414,4.58867a89.55456,89.55456,0,0,1,1.55628,10.32771c.097,1.64814-.43946,4.14457-1.55805,4.8223-1.09128.66118-3.6311-.03459-4.929-.97284a31.36489,31.36489,0,0,1-6.40341-6.19585c-3.68255-4.7816-7.04275-9.81147-11.36468-15.90855V349.238c-4.94568-3.66825-6.39984-10.52117-12.944-10.22208,2.39172,5.96123,5.08423,11.31217,6.5657,16.97968.66849,2.55726-1.07519,5.745-1.72445,8.64674a78.926,78.926,0,0,1-6.00174-5.7144,22.05442,22.05442,0,0,1-2.62116-4.79776c-1.17407-2.37927-2.28439-4.79-3.77695-7.93558-1.09375,5.30876-1.5812,9.65492-2.92648,13.717-1.79159,5.40981-7.32263,6.33893-10.68784,1.81767a71.13676,71.13676,0,0,1-5.86026-10.34957c-1.13543-2.22889-1.9103-4.64141-2.84692-6.97155l-1.51892.33928c0,6.57093.03378,13.14212-.02274,19.71256-.01492,1.73366.18641,4.70219-.55386,4.99833-5.15973,2.06423-4.90521,6.15931-4.22192,9.549-3.81085-.742-7.42722-1.26339-10.93274-2.19965a21.253,21.253,0,0,1-5.65235-2.69733,24.46509,24.46509,0,0,1-3.4407-3.17212l-1.18051.49807c.20334,2.80949.40671,5.619.61957,8.56012-9.34491,1.00175-11.97852-6.508-15.28864-13.138l-1.84128,1.02252q1.429,6.93592,2.85355,13.85074c-8.502.56969-10.92468-8.60142-17.29822-11.37137l-1.08415.90625c2.35409,4.314,4.70819,8.628,7.1684,13.13654-6.07111.12256-10.30008-1.38846-12.56554-6.24773-3.55289-7.62074-6.13358-15.69722-9.06293-23.60406-.57431-1.55013-.86207-3.20642-1.282-4.81374l-1.66868.12027c-.663,6.02881-2.1435,12.10008-1.8331,18.07835.87143,16.78446,9.51422,29.24216,22.82858,39.09687,13.01856,9.63574,27.92462,13.62,43.48651,16.23968,15.315,2.57816,29.32984.69065,40.10907-11.67166,3.64777-4.18344,6.562-9.05685,9.44409-13.83639a21.78973,21.78973,0,0,0,2.94309-7.98987c.44894-3.2071.13776-6.43824,4.07233-7.65953,4.24154-1.31661,6.55773,1.17155,8.52575,4.3119,1.23154,1.96515,2.40586,3.96617,3.55863,5.873,2.58908-4.7553,3.93161-9.95868,7.28448-12.72837,4.85459-4.01014,10.86813-7.673,16.91956-8.9383,9.80032-2.04918,18.019-5.15123,24.61862-13.28823,5.5813-6.8815,9.45486-6.46676,17.0011-1.82248,3.65729,2.25089,7.7001,3.87537,11.56839,5.78345q.35965-.65442.71936-1.30882c-6.98923-12.84354-16.73953-23.41544-28.29672-32.2031-8.36643-6.36148-8.6634-5.96405-6.37681-15.738.052-.22224-.30966-.54123-1.03085-1.71207-1.61938,1.11866-3.18454,2.22942-4.78052,3.29392-1.60376,1.06967-3.38226,3.08827-4.822,2.87987-1.71911-.24887-3.5943-2.16172-4.59543-3.836C355.59714,311.09386,355.68927,308.88272,355.16415,306.10335ZM261.36554,317.4485c-1.53934-3.075-2.45639-6.14879-4.32962-8.44128-9.87161-12.08121-30.40765-11.47109-39.86276.93129-5.1071,6.69906-7.41669,14.29-6.31067,22.51814,2.3148,17.22081,8.60353,26.57376,25.24673,30.73674,7.81757,1.95543,16.07349,2.19869,24.14582,3.07953,4.40579.48076,6.39221-1.46227,6.01577-6.11061-.22509-2.77982.43994-5.62462.61469-8.4458.19806-3.19705.29523-6.40036.43829-9.647-16.84411.50668-24.13754-3.73876-24.12067-13.4731C243.21686,320.67987,248.23279,317.42664,261.36554,317.4485Z" transform="translate(-107.48609 -267.74695)"/></svg>