<svg id="Layer_1" data-name="Layer 1" xmlns="http://www.w3.org/2000/svg" viewBox="0 0 512 511.053"><path d="M554,232c-2.48087,5.93459-4.13647,12.40693-7.59042,17.70742-12.60526,19.34419-37.88034,25.18971-58.17768,14.048-1.15365-.63329-2.29525-1.28857-3.1322-1.75915-10.06766,10.04962-19.93912,19.90342-29.97073,29.917C495.58475,337.075,515.341,390.27093,511.51413,451.2276c-3.56329,56.75851-26.8681,104.84039-68.45337,143.6738-78.44714,73.25592-204.95628,79.35092-293.05936-1.02152-2.09479,2.60364-4.06857,5.47116-6.45413,7.941-6.13271,6.3494-12.52388,12.45023-18.60971,18.84268-.92806.9748-1.60049,3.49607-1.01033,4.42267,15.11663,23.7349,3.531,58.49628-27.56975,66.5723-.13932.03619-.23918.2243-.35748.34149H76c-.86554-.38586-1.70644-.8446-2.6003-1.14667-13.12267-4.435-22.6503-12.84939-28.16317-25.61C43.94509,662.25409,43.06783,659.08588,42,656V641c1.12032-3.26416,2.0539-6.607,3.39063-9.77994a44.26664,44.26664,0,0,1,62.299-21.40735c1.28371.71329,2.56635,1.42844,3.44326,1.9166,9.58775-9.64179,18.9606-19.06745,28.42763-28.5878a217.94277,217.94277,0,0,1-43.702-71.04291c-29.8175-79.38179-8.82812-170.80464,52.59707-229.18586,34.80819-33.08323,76.031-52.47249,123.5733-58.60908a66.47646,66.47646,0,0,1,6.9784-.48c4.83216-.11065,7.92545,2.48063,8.24813,6.77992.34462,4.59172-2.77156,7.47232-7.9314,8.41337-13.70348,2.49922-27.8418,3.84656-40.93715,8.2433C165.332,271.78839,118.339,321.558,102.25811,397.0253,79.90285,501.938,143.16359,602.99869,247.10518,630.38443c109.16206,28.76123,218.20433-39.08637,244.07161-146.14392,23.5773-97.58019-29.0072-195.49688-120.21723-232.02a200.21523,200.21523,0,0,0-55.05593-13.23087c-5.63877-.55687-9.06873-3.6809-8.79081-8.15326.2854-4.59315,3.92755-7.38275,9.65488-6.8898,40.65112,3.49882,77.13992,17.90039,109.72632,42.30055,5.85367,4.38313,11.35821,9.23251,16.82611,13.70479,9.75525-9.95795,19.49551-19.90063,29.5921-30.207a43.94564,43.94564,0,0,1-7.13919-27.86206c1.828-21.646,19.0202-39.35657,39.70331-40.80953,22.91879-1.61,42.23334,12.307,47.49908,34.19957A22.87189,22.87189,0,0,0,554,218Zm-44.10281,22.06984a29.21534,29.21534,0,0,0,29.07724-28.76709c.11688-15.80105-13.39878-29.34409-29.22709-29.28642a29.12126,29.12126,0,0,0-28.84887,28.95107A28.6925,28.6925,0,0,0,509.89719,254.06983ZM86.13663,677.25861a28.5766,28.5766,0,0,0,28.96506-28.57193,28.87429,28.87429,0,0,0-28.91081-29.26743c-16.0441-.01367-29.34517,13.3045-29.17417,29.2117A29.03408,29.03408,0,0,0,86.13663,677.25861Z" transform="translate(-42 -180.947)"/><path d="M297.45053,613.30579C201.02,613.7821,121.62746,534.888,121.14748,438.10955c-.47952-96.685,78.05713-175.52819,175.63241-176.31795,96.70549-.78272,175.95632,78.05381,176.32225,175.40047C473.46671,534.167,395.01611,612.82391,297.45053,613.30579ZM190.02682,556.69638c59.87871,55.74408,159.91568,57.25677,222.63047-7.61356C475.821,483.7482,469.15158,386.13159,416.703,330.67161c-6.12823,6.19278-12.26605,12.39523-18.25793,18.45021,3.833,4.32907,8.47162,8.72261,12.05725,13.85221a79.783,79.783,0,0,1,9.32147,16.97737c9.76657,25.61461,5.31378,50.24588-5.8707,74.3405a22.73451,22.73451,0,0,0-1.83212,9.40274c.034,8.62311,1.17319,17.27386.76471,25.86087-1.41208,29.68469-21.78454,54.121-50.57294,61.46024-22.18222,5.65512-43.51565,1.85229-64.60849-5.45719a16.47828,16.47828,0,0,0-7.60495-.75229,160.56188,160.56188,0,0,1-42.276,1.41352,110.99321,110.99321,0,0,1-36.57521-10.65223C203.88367,542.8999,196.94853,549.80484,190.02682,556.69638Zm6.5662-30.36081c-1.61212-1.67716-3.434-3.60785-5.29344-5.50159-15.82639-16.1181-22.80078-35.69858-21.95159-58.01013.583-15.31833,5.11553-29.718,11.91985-43.44119a14.00436,14.00436,0,0,0,1.36294-6.54935c-.33783-7.959-1.63-15.9171-1.45587-23.85126.71207-32.44688,21.911-58.448,53.39951-65.55324,21.32322-4.81151,41.93673-1.08273,62.19446,6.07059a20.2924,20.2924,0,0,0,8.11225.64626c6.45963-.506,12.87439-1.713,19.337-2.02887,20.91989-1.02251,41.10126,2.06924,58.68246,11.27452l21.32834-21.40384c-63.39254-58.38559-169.09923-56.3692-230.447,16.89988-57.43241,68.59284-42.72592,162.41148,4.62271,209.686C184.49969,538.46173,190.59381,532.35107,196.593,526.33557ZM345.93854,378.09048a163.17076,163.17076,0,0,0-45.28791-30.34784,6.097,6.097,0,0,0-3.741.03386c-39.63947,10.85535-71.983,32.206-95.02881,66.655a11.25431,11.25431,0,0,0-1.2141,8.182A128.95468,128.95468,0,0,0,219.609,463.04983c5.51755,7.97269,11.64356,15.52429,17.08214,22.71622l30.07576-29.99689c-.7737-.91772-1.85618-2.16733-2.90173-3.44711-10.5156-12.871-19.50891-26.50908-22.41928-43.33908-2.97942-17.2293,8.6904-29.415,26.08868-27.21062,14.17873,1.79642,26.00543,8.753,37.30306,16.85014,3.99762,2.86516,7.773,6.04041,11.61953,9.05037C326.36185,397.7342,335.99515,388.06793,345.93854,378.09048ZM249.338,497.56009c10.478,10.41378,30.05922,23.74527,43.44832,29.34408a7.74865,7.74865,0,0,0,4.672.413c39.83457-10.85428,72.21042-32.44272,95.3862-66.976a10.52886,10.52886,0,0,0,1.06452-7.70041,133.48091,133.48091,0,0,0-20.29837-42.51809c-5.14649-7.26-10.809-14.15427-16.27109-21.255-10.37228,10.43915-19.98911,20.118-29.85538,30.04782a72.28744,72.28744,0,0,1,4.82981,5.95517c5.11569,7.75837,10.53518,15.36658,14.98669,23.49857,4.42874,8.09042,6.75272,16.95358,5.75336,26.41083-.987,9.33987-7.31736,16.4638-16.48395,18.213-11.8573,2.26267-22.44867-1.8479-32.32382-7.49405-9.04346-5.17053-17.45183-11.4519-25.86-17.0571Zm18.46658-100.717c-9.75421-.24242-12.22884,2.28227-11.21265,9.02652a41.972,41.972,0,0,0,3.091,11.45473c12.14517,25.96478,31.409,45.04327,57.11566,57.52255a38.77217,38.77217,0,0,0,12.90555,3.28738c6.62708.66028,8.95938-1.72726,8.21274-8.47094a40.67233,40.67233,0,0,0-3.49985-12.86151c-11.555-24.19475-29.5187-42.38746-53.15736-54.86638C276.21829,399.27406,270.52429,397.84892,267.80458,396.84306Zm100.95256-18.49c6.51035,8.7537,13.76035,17.479,19.83515,26.95745,6.09066,9.50319,11.00875,19.75789,16.34671,29.51141,10.56353-25.70975,4.71908-57.95314-18.18592-74.55193C380.64819,366.40445,374.58115,372.50085,368.75714,378.35305Zm-142.45689,118.033a188.61053,188.61053,0,0,1-36.38787-57.21314c-11.85505,26.80734-2.81469,62.84869,18.0156,75.54764C214.0069,508.65417,219.98334,502.69,226.30025,496.38608Zm171.474-14.1753c-11.29431,10.04035-22.22717,21.34433-34.75623,30.45255-12.58264,9.14718-26.75558,16.10687-39.58728,23.6466C364.29111,546.3475,399.56738,522.51239,397.7742,482.21078ZM196.62442,392.9517c11.19809-9.93149,22.2558-21.29254,34.8837-30.50011,12.57742-9.17076,26.73054-16.18051,39.5251-23.74313C232.0022,329.17181,195.12883,350.6847,196.62442,392.9517Zm160.05331-26.52153,15.232-15.35223c-14.13025-6.27207-29.30087-8.47177-45.76526-7.95818C336.90457,351.33447,346.96753,359.017,356.67773,366.43017Zm-88.29231,165.517c-10.75863-8.205-20.86986-15.91626-30.64535-23.37146-5.0988,5.00028-10.189,9.99213-15.50038,15.20081C236.80542,530.34826,252.04924,532.36175,268.38542,531.9472Z" transform="translate(-42 -180.947)"/></svg>