<svg id="Layer_1" data-name="Layer 1" xmlns="http://www.w3.org/2000/svg" viewBox="0 0 339.32547 407.96307"><path d="M154.84436,587.49c-8.31433-5.35633-5.424-13.34655-3.829-20.17362,6.04328-25.86775,27.13954-42.52892,53.93616-43.58855,6.497-.2569,14.62889,1.31455,18.99277-1.96646,4.14613-3.11729,4.35708-11.4814,6.276-17.5455,4.63885-14.65941,8.95845-29.4304,14.04745-43.93157,2.0182-5.75085.747-9.05253-3.72727-12.83276-31.16452-26.33023-50.97176-59.49915-57.54237-99.87079-6.24906-38.39593,1.55715-73.6436,25.0444-105.34,13.05322-17.61557,29.41918-23.35783,50.16664-17.649,29.24255,8.04632,54.06817,24.25463,77.34255,42.972,2.12257,1.707,2.70161,8.18166,1.20547,10.91313-2.64893,4.83611-7.47765,3.38421-11.73108.59191-14.61951-9.59747-28.866-19.90491-44.16928-28.26811-9.8306-5.37239-21.02157-8.96465-32.03842-11.29791-18.41251-3.89959-26.671,5.42508-22.96476,23.74747,4.02747,19.91062,13.43742,37.33106,24.466,53.98482,5.84175,8.82141,12.33969,17.20828,18.87311,26.2504,14.29166-9.38034,28.72431-11.39435,43.94679-3.80749,1.26394.63,4.14026-.29451,5.33011-1.45653,11.96941-11.68948,23.859-23.4683,35.43125-35.54757,1.53069-1.59776,2.02838-5.19686,1.52984-7.55764-2.60805-12.3491,1.85837-23.645,12.12065-29.32676a25.26069,25.26069,0,0,1,30.16447,3.95115,25.75667,25.75667,0,0,1,4.6088,30.76727c-5.709,10.39945-16.74628,14.84053-29.29207,12.41653-2.55489-.49363-6.37855.20223-8.14942,1.89-12.6795,12.08441-24.97923,24.56731-37.89951,37.42094,8.63808,15.48665,8.45041,30.80946-2.978,47.118,14.50209,9.63317,28.13643,20.211,43.14981,28.19594,12.70146,6.7553,26.7001,11.666,40.67116,15.28091,15.50384,4.01153,23.94457-4.76452,21.917-20.75735-2.32534-18.34226-10.93477-34.20442-20.134-49.7898-2.15679-3.654-4.55662-7.16493-6.85523-10.73486-2.80557-4.35731-3.2475-8.77506,1.39219-11.88324,4.936-3.3067,9.45416-1.447,12.01282,3.46807,8.7858,16.87727,18.37128,33.47281,25.39959,51.075,3.64788,9.13611,4.1402,20.33181,3.06451,30.2732-.71661,6.6231-5.46138,14.0249-10.55617,18.7634C400.11785,484.8197,359.58152,492.709,315.00388,484.491c-4.13879-.763-8.23691-1.74653-12.96784-2.75905v42.00343c8.26041,0,16.64682-.16685,25.02461.03071,27.10949.63935,47.83233,16.72333,54.63515,42.67931,1.85822,7.09,3.41206,14.52716-2.12926,21.04463ZM397.076,459.46354C309.22322,421.44007,246.39273,358.95971,209.22656,271.348c-25.47675,44.97244-11.26989,113.28388,33.17751,156.74205C291.49553,476.089,358.22834,481.27921,397.076,459.46354ZM366.20241,571.3322c-4.19056-18.05076-18.0866-31.11265-35.34728-31.3358q-64.50416-.83387-129.02467.03179c-17.79714.26118-33.59742,15.71914-34.36777,31.304ZM241.02814,523.32446h44.52912c0-15.13718.10455-29.8981-.1547-44.65262-.02723-1.54918-1.883-3.6378-3.43269-4.4903-6.93362-3.81428-14.06376-7.27133-21.91528-11.25983C253.75147,482.93207,247.50821,502.75236,241.02814,523.32446Zm70.7053-135.9135c7.49986-10.107,6.88171-21.536-1.26577-29.714-8.03513-8.06529-19.31826-8.80431-30.3277-1.20042C290.75889,366.8872,301.21734,377.12087,311.73344,387.411Zm77.76717-99.60022c-.59676-5.58292-3.77942-9.23063-9.59937-9.18722-5.809.04331-9.514,3.77966-9.46293,9.54915.05053,5.7107,3.53049,9.4052,9.55126,9.36032C385.97632,297.48837,388.9589,293.916,389.50061,287.81074Z" transform="translate(-149.20536 -179.52693)"/><path d="M488.23505,282.57785c0,2.12.76812,4.7052-.1713,6.25613-1.60285,2.64614-4.30555,6.48519-6.49468,6.45172-2.807-.04291-6.17018-2.95485-8.13477-5.5187-1.38833-1.81174-.99928-5.08969-1.153-7.72768-2.69378-46.2142-40.3162-83.80465-86.55241-86.4291-1.5904-.09028-3.18553-.09767-4.77578-.1896-5.30377-.30661-8.8305-3.01368-8.52722-8.40317.30309-5.38593,4.14779-7.61347,9.41778-7.4853,25.30382.61537,47.93843,8.77368,67.30652,24.98983C473.36581,224.79683,486.37984,250.9608,488.23505,282.57785Z" transform="translate(-149.20536 -179.52693)"/><path d="M384.495,222.48466c33.20679,1.76864,60.40144,29.88722,61.48789,63.58237.16569,5.13851-1.70853,9.12017-7.22512,9.60272-5.583.48839-8.05822-3.07208-8.50992-8.29809-1.02719-11.88416-4.34475-22.86778-12.47736-31.99018-8.84908-9.92607-19.77743-15.75791-33.09188-16.94568-.52828-.04712-1.05965-.05809-1.58864-.09832-5.72892-.43569-10.81673-1.907-10.69674-8.99267C372.48023,224.21078,376.60158,222.06424,384.495,222.48466Z" transform="translate(-149.20536 -179.52693)"/><path d="M391.19772,343.58725c-2.16236-2.99945-6.04762-6.041-5.97563-8.98585.06476-2.65116,4.81376-7.53906,6.87689-7.235,3.0375.4477,7.01615,4.26989,7.75973,7.34093.56454,2.33155-3.28677,5.73233-5.1732,8.65735Z" transform="translate(-149.20536 -179.52693)"/></svg>