<svg id="Layer_1" data-name="Layer 1" xmlns="http://www.w3.org/2000/svg" viewBox="0 0 408.98566 260.22229"><defs><style>.cls-1{fill:#fff;}</style></defs><path d="M477.3311,423.18823c-5.65285,4.53574-11.178,9.24552-17.01572,13.52929-2.67454,1.96258-5.493.55924-7.34186-1.81308-1.80943-2.32164-1.99-5.278.32739-7.22146a157.96427,157.96427,0,0,1,15.4875-11.74606c3.64605-2.35979,6.44885.14946,8.54269,3.25911Z" transform="translate(-68.34544 -301.09052)"/><path d="M237.7041,522.33634l10.87278-19.84011-62.49422-93.94071c-37.71464,28.62916-58.2743,66.08983-61.48543,113.78062l4.58773,0q24.94718,0,49.89435.0011c1.06429.00009,2.13529-.059,3.19167.03659,3.911.3541,6.64132,2.868,6.68807,6.09038.04653,3.20746-2.62869,5.76584-6.557,6.19325a29.619,29.619,0,0,1-3.19051.06q-44.30617.00369-88.61235.00017c-8.34033-.00132-10.09842-2.12588-9.82634-10.54028.95-29.38036,7.73672-57.26769,21.32548-83.36555q28.19586-54.15157,82.42913-82.38541c3.82207-1.99545,7.3064-1.16111,9.00137,1.904,1.7054,3.084.54861,6.44994-3.156,8.6636-3.75158,2.2417-7.59095,4.33644-11.519,6.56779,3.19535,4.86138,6.25592,9.52517,9.32792,14.18144.36052.54644.78386,1.05144,1.468,1.96112,25.49163-14.96728,52.937-22.83094,82.55022-22.82379,29.50853.00711,56.834,7.88319,82.4336,22.88208,3.61435-5.47428,7.03548-10.65587,10.61087-16.07114a175.27236,175.27236,0,0,0-106.34224-25.668c-13.90391,1.25864-27.5736,5.11021-41.34545,7.811-1.037.20337-2.03524.60363-3.07194.80947-3.65211.72519-6.64736-.885-7.58982-4.03185-.91442-3.0532.74386-6.30525,4.33207-7.44492,5.93149-1.88393,11.91379-3.67908,17.97683-5.06463a187.63424,187.63424,0,0,1,60.58012-4.16054c43.03394,4.2635,80.69513,20.86036,112.41833,50.36422,30.62488,28.48245,50.1691,63.3,57.78925,104.46581,2.07042,11.18487,2.59757,22.67468,3.47829,34.052.41377,5.345-2.20719,7.70526-7.7065,7.87147-3.58916.10848-7.18417.02385-10.77656.02388q-62.06858.00043-124.13685.08979a18.2492,18.2492,0,0,0-7.83826,2.08153A48.0158,48.0158,0,0,0,296.815,549.80976c-8.074,9.9988-19.39345,13.35823-31.929,10.54907-12.15882-2.72473-20.46906-10.35865-24.42919-22.25273-.88509-2.65828-1.97709-3.51077-4.70086-3.44822-7.71293.17705-15.43276.0912-23.14938.03674-1.578-.01111-3.588.20307-4.63391-.63789-1.786-1.436-3.96273-3.553-4.1044-5.51878-.12606-1.74922,1.98323-4.06172,3.67857-5.40047,1.1562-.91306,3.29658-.75821,4.99922-.77085C221.30991,522.30135,230.07455,522.33634,237.7041,522.33634ZM196.421,402.09836C217.06569,433.157,237.5683,464.041,258.1991,494.83919c.58171.86839,2.68325,1.40019,3.818,1.10314,6.163-1.61345,12.25734-2.12259,18.4704-.3251,3.28163.94942,5.70995.0596,7.73249-3.07366,9.224-14.28967,18.64615-28.452,28.05675-42.62042,2.67271-4.024,6.3334-5.02722,9.41929-2.826,2.92383,2.08563,3.25424,5.63719.69252,9.55607-6.61639,10.12166-13.30628,20.1953-19.9546,30.29613-.75868,1.15268-1.43965,2.3565-2.38948,3.91978,1.81155-.38357,3.10515-.62124,4.38063-.93309q26.07417-6.37493,52.14672-12.7566c4.55675-1.1085,8.965-.962,12.89568,2.05227,8.13943,6.24179,7.49842,17.97665-1.52933,23.43552-9.77181,5.90868-19.75349,11.47-29.63412,17.1993-.94556.54824-1.82346,1.21313-3.17963,2.124h80.47615c-3.22836-47.4183-23.77715-84.84676-61.43977-113.38924-2.92846,4.41375-5.487,8.2933-8.0701,12.15642-2.43662,3.644-4.72688,7.40424-7.40707,10.861a5.59119,5.59119,0,0,1-7.81087,1.47288c-2.76376-1.62249-3.56574-4.88892-2.01822-8.01857a36.4373,36.4373,0,0,1,2.29988-3.72106q6.301-9.61921,12.62595-19.22967C302.99773,374.54854,243.16128,373.56676,196.421,402.09836ZM112.4507,522.33568c1.29188-24.969,7.46381-48.113,19.17412-69.68938a162.50622,162.50622,0,0,1,47.752-54.13866c-3.67555-5.57577-7.14214-10.83454-10.743-16.297-27.65348,19.81785-48.11128,44.9104-61.32832,75.85387A174.83822,174.83822,0,0,0,93.151,522.1667c1.59148.07312,2.634.15948,3.67681.16247C101.86539,522.34362,106.903,522.33568,112.4507,522.33568Zm338.909-.22483c-3.64118-58.685-28.95958-104.93277-75.74311-139.97035-2.00117,3.01268-3.77142,5.65444-5.51708,8.31238-1.72666,2.62888-3.42844,5.27408-5.17778,7.96858,41.26723,31.15821,63.65237,72.19609,66.94737,123.68939ZM272.2489,506.687a21.225,21.225,0,0,0-21.41233,21.11479c.07684,11.7151,9.83118,21.48209,21.33075,21.35845a21.47207,21.47207,0,0,0,21.17488-21.07931A21.10588,21.10588,0,0,0,272.2489,506.687Zm34.49542,19.6757c19.11694-11.04737,38.763-22.37831,58.35454-33.80278.78886-.46,1.06162-1.80509,1.57483-2.73779-1.14-.25217-2.382-.93458-3.40463-.692-15.20546,3.60687-30.38353,7.32924-45.56436,11.03967-6.77149,1.65507-13.53465,3.34423-19.48942,4.817C301.09657,512.20805,303.85093,519.11109,306.74432,526.3627Z" transform="translate(-68.34544 -301.09052)"/><path d="M94.03916,430.56175c.08423,5.05719-4.644,8.51279-8.2157,6.22193a152.449,152.449,0,0,1-15.8432-11.94777c-2.263-1.90954-2.02438-4.86979-.21645-7.24938,1.7973-2.36561,4.56759-3.46568,7.03183-1.8,5.47662,3.70173,10.66894,7.83614,15.84186,11.96372C93.54141,428.47145,93.78476,430.02053,94.03916,430.56175Z" transform="translate(-68.34544 -301.09052)"/><path d="M117.33089,399.50882c-.04987,5.81577-4.99157,8.73574-9.06083,6.03006a165.27963,165.27963,0,0,1-14.25266-10.806c-2.81292-2.34652-2.94779-5.62423-.78777-8.13014,2.17829-2.52707,4.994-3.3144,7.79294-1.35395,4.88379,3.42075,9.6299,7.05471,14.24817,10.82649C116.46264,397.04871,116.964,398.86766,117.33089,399.50882Z" transform="translate(-68.34544 -301.09052)"/><path d="M448.717,383.9249c1.26181,1.01521,3.64,2.043,4.37405,3.76975.72539,1.70646.60119,5.02672-.55883,6.06428a149.11638,149.11638,0,0,1-15.67955,12.13924,4.75439,4.75439,0,0,1-6.95012-1.73676c-.95834-1.91171-1.35188-5.7686-.22354-6.77981,5.19349-4.65419,11.00239-8.62331,16.61764-12.80175A9.929,9.929,0,0,1,448.717,383.9249Z" transform="translate(-68.34544 -301.09052)"/><path d="M258.69011,315.74705c0,2.78752.06772,5.57709-.01684,8.362-.11,3.62322-2.12465,5.64061-5.66413,5.95762a5.8288,5.8288,0,0,1-6.28058-5.81674c-.2113-5.83331-.22656-11.68828.03065-17.51843a5.94392,5.94392,0,0,1,11.88.25759c.17427,2.90952.03578,5.83778.03578,8.75775Z" transform="translate(-68.34544 -301.09052)"/><path d="M297.60368,315.84056c.00529,2.52264.09859,5.04953-.01608,7.567-.1826,4.0078-2.55965,6.62246-5.93465,6.72481-3.48187.10559-5.99508-2.27959-6.139-6.3749-.191-5.43571-.18114-10.88773.00044-16.32412.12736-3.81287,2.5702-6.25118,5.78815-6.33961,3.39428-.0933,6.024,2.4684,6.263,6.38447C297.73506,310.256,297.59839,313.05242,297.60368,315.84056Z" transform="translate(-68.34544 -301.09052)"/><path class="cls-1" d="M196.421,402.09836c46.74024-28.5316,106.57669-27.54982,151.35935.02389q-6.31809,9.61845-12.62595,19.22967a36.4373,36.4373,0,0,0-2.29988,3.72106c-1.54752,3.12965-.74554,6.39608,2.01822,8.01857a5.59119,5.59119,0,0,0,7.81087-1.47288c2.68019-3.45672,4.97045-7.217,7.40707-10.861,2.58311-3.86312,5.14164-7.74267,8.0701-12.15642,37.66262,28.54248,58.21141,65.97094,61.43977,113.38924H339.12444c1.35617-.91087,2.23407-1.57576,3.17963-2.124,9.88063-5.72929,19.86231-11.29062,29.63412-17.1993,9.02775-5.45887,9.66876-17.19373,1.52933-23.43552-3.93067-3.01428-8.33893-3.16077-12.89568-2.05227q-26.08148,6.34485-52.14672,12.7566c-1.27548.31185-2.56908.54952-4.38063.93309.94983-1.56328,1.6308-2.7671,2.38948-3.91978,6.64832-10.10083,13.33821-20.17447,19.9546-30.29613,2.56172-3.91888,2.23131-7.47044-.69252-9.55607-3.08589-2.20122-6.74658-1.198-9.41929,2.826-9.4106,14.16845-18.8327,28.33075-28.05675,42.62042-2.02254,3.13326-4.45086,4.02308-7.73249,3.07366-6.21306-1.79749-12.30743-1.28835-18.4704.3251-1.13477.297-3.23631-.23475-3.818-1.10314C237.5683,464.041,217.06569,433.157,196.421,402.09836Z" transform="translate(-68.34544 -301.09052)"/><path class="cls-1" d="M112.4507,522.33568c-5.54768,0-10.58531.00794-15.62288-.00651-1.04278-.003-2.08533-.08935-3.67681-.16247a174.83822,174.83822,0,0,1,14.15452-64.10217c13.217-30.94347,33.67484-56.036,61.32832-75.85387,3.60086,5.46244,7.06745,10.72121,10.743,16.297a162.50622,162.50622,0,0,0-47.752,54.13866C119.91451,474.22264,113.74258,497.36667,112.4507,522.33568Z" transform="translate(-68.34544 -301.09052)"/><path class="cls-1" d="M451.35973,522.11085h-19.4906c-3.295-51.4933-25.68014-92.53118-66.94737-123.68939,1.74934-2.6945,3.45112-5.3397,5.17778-7.96858,1.74566-2.65794,3.51591-5.2997,5.51708-8.31238C422.40015,417.17808,447.71855,463.42581,451.35973,522.11085Z" transform="translate(-68.34544 -301.09052)"/><path class="cls-1" d="M272.2489,506.687a21.10588,21.10588,0,0,1,21.0933,21.39393,21.47207,21.47207,0,0,1-21.17488,21.07931c-11.49957.12364-21.25391-9.64335-21.33075-21.35845A21.225,21.225,0,0,1,272.2489,506.687Z" transform="translate(-68.34544 -301.09052)"/><path class="cls-1" d="M306.74432,526.3627c-2.89339-7.25161-5.64775-14.15465-8.529-21.37588,5.95477-1.4728,12.71793-3.162,19.48942-4.817,15.18083-3.71043,30.3589-7.4328,45.56436-11.03967,1.02263-.24257,2.26464.43984,3.40463.692-.51321.9327-.786,2.27778-1.57483,2.73779C345.50731,503.98439,325.86126,515.31533,306.74432,526.3627Z" transform="translate(-68.34544 -301.09052)"/></svg>