<svg id="Layer_1" data-name="Layer 1" xmlns="http://www.w3.org/2000/svg" viewBox="0 0 383.41888 326.96771"><path d="M487,429.10526q-14.91729,14.89593-29.83777,29.78863c-6.73556,6.70906-12.58746,6.65289-19.37111-.13193q-13.35729-13.35962-26.71446-26.71932c-3.99321-4.00564-3.99936-6.81887-.08635-10.80336q2.75212-2.80242,5.558-5.55183c3.85259-3.75439,6.4436-3.81034,10.193-.066,2.886,2.8821,5.6369,5.89942,8.44792,8.85658l1.22083-.46765c-.37443-7.24776-.33382-14.54532-1.19657-21.73447-3.36433-28.0347-14.02675-53.0345-32.36815-74.55689-22.52661-26.43344-51.07586-42.52559-85.32379-48.1118-8.43444-1.37575-17.11353-1.34675-25.69076-1.71894-5.95642-.25846-7.69856-1.826-7.72015-7.878-.00979-2.74331-.03337-5.48721.00844-8.22994.07042-4.61759,1.92887-6.75369,6.58279-6.6316,8.58965.22534,17.24734.22539,25.74046,1.349,35.80519,4.73714,66.87112,19.64217,92.78466,44.8543,25.21244,24.53,41.15926,54.14944,47,88.89543,1.6446,9.78377,1.87514,19.80616,2.72325,29.72174a10.22378,10.22378,0,0,0,.81574,4.16591q4.00878-3.993,8.01864-7.98491c4.4269-4.39087,6.81646-4.40869,11.26572.07339,2.71359,2.73357,5.30393,5.58949,7.94963,8.39046Z" transform="translate(-103.58112 -255.14371)"/><path d="M295.4189,486.34914a67.72405,67.72405,0,1,1,67.68864-67.86786C363.285,455.7576,332.82885,486.29433,295.4189,486.34914Z" transform="translate(-103.58112 -255.14371)"/><path d="M154.31013,413.27617c.40179,7.38987.36415,14.83475,1.28152,22.16007,3.95084,31.5476,16.90853,58.9176,39.21835,81.63115,22.37965,22.78458,49.4433,36.60172,81.16113,40.83824,7.75217,1.03545,15.63929,1.12322,23.47221,1.46944,5.22581.231,7.15011,2.00831,7.19143,7.27273.02349,2.99344.04448,5.988-.0087,8.98069-.08043,4.52388-2.02348,6.7519-6.74009,6.457-11.79245-.73717-23.85137-.54919-35.28941-3.06712-65.83045-14.49168-108.30674-54.50692-127.43565-119.11861-4.08876-13.8106-5.22694-28.123-5.38281-42.49832-.014-1.2955-.11949-2.59-.18248-3.885l-.94408-.52524c-2.70843,2.85587-5.34864,5.78056-8.1419,8.55086-3.82606,3.79466-6.442,3.7747-10.20674.08361-2.31534-2.27006-4.66664-4.51168-6.85608-6.89968-2.40176-2.61958-2.5476-5.50365-.07037-8.01989,10.06267-10.22116,20.14475-20.4285,30.45038-30.40256a10.80234,10.80234,0,0,1,14.98724.15537c10.10268,9.82662,20.02114,19.84417,29.92739,29.87018,2.677,2.70932,2.6084,5.81358-.00093,8.64228-2.36594,2.56483-4.83653,5.047-7.40933,7.40359-3.07762,2.819-5.78164,2.71457-8.85276-.27291-3.09122-3.007-6.06787-6.13184-9.09473-9.205Z" transform="translate(-103.58112 -255.14371)"/></svg>