<svg id="Layer_1" data-name="Layer 1" xmlns="http://www.w3.org/2000/svg" viewBox="0 0 301.96137 512"><path d="M248,674c-9.2757-2.33676-18.91634-3.73334-27.76573-7.16836-45.21744-17.552-72.59532-50.29944-79.03637-98.54563-5.75242-43.0881,9.26366-79.12631,41.887-107.744,2.617-2.29571,3.1891-4.61758,3.18669-7.76867q-.08223-107.46849-.01666-214.937c.04254-36.54193,23.645-66.06843,59.08359-74.32547,1.9013-.443,3.775-1.00452,5.66151-1.51086h20c5.2197,1.485,10.5596,2.6428,15.63933,4.50883,30.313,11.13543,48.899,38.82088,48.9243,72.89033q.07865,106.17138-.06958,212.34272a11.59177,11.59177,0,0,0,4.41049,9.73792c29.49237,26.10614,43.50955,59.07193,41.90231,98.34039-2.24923,54.95429-44.80374,102.79041-99.23225,112.24652-2.88313.50092-5.71753,1.28241-8.5746,1.93329Zm57.13379-325.236h-.03528c0-37.82745.23105-75.65674-.07169-113.48177-.25094-31.35822-33.44216-52.38908-61.92126-39.25925-17.96754,8.28366-26.41534,22.86326-26.39,42.68743.09483,74.32186-.00484,148.644.10064,222.96581.01082,7.62747-2.67673,13.11118-8.85092,17.81857-30.1214,22.96537-42.55954,53.38144-36.01184,90.76917,8.79871,50.24109,60.24293,83.57882,109.66464,71.04629,36.78162-9.32721,60.38593-33.05487,67.98657-70.01834,7.69663-37.42993-5.174-68.51907-35.63717-91.79236-6.1702-4.714-8.94464-10.0827-8.91025-17.75314C305.226,424.08627,305.13379,386.42494,305.13379,348.764Z" transform="translate(-139.9944 -162)"/><path d="M404.00049,371.72315c-7.32981-.00054-14.66068.07717-21.9892-.01958-9.859-.13016-16.94321-6.64847-16.85135-15.34677.09235-8.738,7.14975-15.07834,17.07944-15.131q21.23917-.11265,42.4794-.00484c10.28333.04224,17.29923,6.361,17.23657,15.361-.0625,8.98128-7.05493,15.067-17.46475,15.13351C417.66083,371.75909,410.83054,371.72369,404.00049,371.72315Z" transform="translate(-139.9944 -162)"/><path d="M403.50635,431.72186c-7.16336.001-14.32752.06787-21.48993-.01516-9.83936-.11405-16.94553-6.63364-16.85648-15.33217.0875-8.55225,7.02658-15.048,16.571-15.13083q21.98822-.19075,43.97906.00873c9.52481.10148,16.30228,6.6943,16.24533,15.33372-.057,8.64624-6.86178,14.97089-16.45938,15.11313C418.16757,431.80792,410.8363,431.72086,403.50635,431.72186Z" transform="translate(-139.9944 -162)"/><path d="M403.591,221.20835c7.32978.0003,14.66059-.07776,21.98908.01974,9.50332.12644,16.36331,6.56175,16.3753,15.19649.01175,8.46205-6.53634,15.07174-15.83017,15.22079q-22.4832.36058-44.976.00418c-9.23785-.144-15.97922-6.85262-15.99237-15.18091-.01346-8.53118,7.00256-15.10694,16.4451-15.24C388.93027,221.12545,396.2612,221.20805,403.591,221.20835Z" transform="translate(-139.9944 -162)"/><path d="M403.49792,281.2075c7.32981.00074,14.66068-.07969,21.98911.02072,9.56155.131,16.40671,6.48308,16.46765,15.111.06128,8.67426-6.64535,15.22454-16.23187,15.33408q-22.23633.25405-44.47724-.011c-9.23449-.12493-15.99731-6.72757-16.08636-15.08577-.09076-8.51766,6.91559-15.10327,16.3493-15.3669.16651-.00466.33316-.00278.49976-.00278Q392.75308,281.20668,403.49792,281.2075Z" transform="translate(-139.9944 -162)"/><path d="M275.98438,492.03024c8.72811,5.211,17.31484,9.09174,24.418,14.81406,20.61078,16.604,27.128,45.63727,16.63627,70.12927-10.63877,24.83521-37.04824,40.21616-63.21152,36.81455-26.842-3.48981-48.33421-23.76651-52.8802-49.88956-5.25493-30.19693,11.99858-59.3768,40.89273-68.72632,3.35939-1.087,4.17994-2.546,4.17448-5.88333q-.15468-94.7022-.0658-189.40474a37.30365,37.30365,0,0,1,.28547-6.97351c1.32415-6.89123,8.27026-12.14282,15.304-11.83166a15.36555,15.36555,0,0,1,14.37878,13.51266c.159,1.65176.06564,3.32912.06571,4.99469q.0035,93.95279.002,187.90556ZM291.811,553.02588a31.2504,31.2504,0,0,0-30.902-30.87683c-16.74731.00787-30.911,14.18594-30.88447,30.91571.02658,16.73971,14.20208,30.9039,30.92012,30.89548C277.68777,583.95175,291.82019,569.78824,291.811,553.02588Z" transform="translate(-139.9944 -162)"/></svg>